<?xml version="1.0" standalone="no"?>
<!DOCTYPE svg PUBLIC "-//W3C//DTD SVG 20010904//EN"
 "http://www.w3.org/TR/2001/REC-SVG-20010904/DTD/svg10.dtd">
<svg version="1.0" xmlns="http://www.w3.org/2000/svg"
 width="390.000000pt" height="844.000000pt" viewBox="0 0 390.000000 844.000000"
 preserveAspectRatio="xMidYMid meet">
<metadata>
Created by potrace 1.16, written by Peter Selinger 2001-2019
</metadata>
<g transform="translate(0.000000,844.000000) scale(0.100000,-0.100000)"
fill="#000000" stroke="none">
<path d="M0 6728 c0 -1039 4 -1719 10 -1728 5 -8 12 -11 16 -7 4 3 2 13 -5 21
-9 11 -8 15 5 20 11 4 13 10 6 19 -17 21 -7 55 24 79 41 33 64 57 64 68 0 5 6
7 14 4 7 -3 21 7 31 23 21 33 62 73 68 67 2 -3 12 7 21 20 9 14 22 23 29 21 6
-3 32 13 56 35 31 28 47 36 52 28 5 -8 12 -2 19 17 9 23 13 26 20 15 6 -8 10
-28 10 -45 0 -36 -26 -136 -37 -144 -11 -8 -13 -35 -17 -209 -3 -131 -5 -145
-28 -180 -13 -20 -31 -53 -40 -72 -57 -129 -92 -200 -100 -200 -4 0 -8 -7 -8
-15 0 -8 -6 -15 -13 -15 -7 0 -20 -12 -30 -27 -15 -24 -17 -25 -12 -5 4 12 2
22 -2 22 -5 0 -15 16 -22 35 -7 20 -20 36 -29 37 -9 1 -36 2 -59 3 l-43 2 0
-64 c0 -55 2 -64 18 -62 32 3 41 -1 47 -21 3 -11 11 -20 16 -20 5 0 8 3 6 8
-1 4 3 8 8 9 6 1 9 -5 7 -13 -2 -8 2 -15 8 -15 5 -1 16 -2 23 -3 12 -1 14 -32
4 -76 -3 -14 -11 -49 -17 -78 -7 -29 -18 -56 -26 -59 -8 -3 -13 -10 -12 -17 1
-6 -6 -28 -15 -50 -14 -31 -20 -36 -31 -27 -12 10 -13 8 -8 -11 5 -21 4 -22
-11 -9 -16 13 -17 -122 -17 -2048 l0 -2061 1950 0 1950 0 0 249 c-1 201 -4
252 -15 261 -8 6 -14 24 -13 38 1 43 -9 87 -27 122 -24 47 -37 58 -60 53 -17
-4 -17 -3 -5 6 13 10 13 13 -2 21 -10 6 -15 17 -11 26 3 9 1 19 -5 23 -7 4
-15 28 -18 53 l-6 46 41 -11 c41 -11 42 -12 36 -47 -5 -28 -2 -40 14 -55 12
-10 21 -27 21 -37 0 -21 27 -35 41 -21 6 6 4 25 -6 52 -8 24 -15 58 -15 76 0
17 -11 53 -24 78 -13 26 -20 50 -16 52 11 7 50 -61 51 -88 1 -12 5 -33 9 -47
4 -14 8 1372 8 3080 0 2595 -3 3094 -14 3040 -16 -81 -23 -211 -15 -270 6 -41
-2 -142 -14 -181 -3 -9 -16 -16 -29 -16 -18 0 -22 4 -19 22 3 12 -2 28 -10 37
-11 10 -12 19 -5 32 5 10 7 20 4 23 -3 4 -6 1 -6 -5 0 -7 -5 -12 -11 -12 -5 0
-7 5 -3 12 4 7 3 8 -5 4 -15 -10 -43 13 -34 27 11 17 11 47 1 41 -5 -4 -7 -13
-4 -21 3 -8 1 -11 -4 -8 -15 9 -12 26 8 48 16 19 16 20 -5 8 -30 -15 -41 -14
-18 2 14 11 15 16 5 22 -14 9 -30 -11 -30 -37 0 -17 -4 -20 -32 -22 -7 -1 -15
-4 -18 -8 -3 -3 -19 -8 -37 -11 -17 -3 -38 -9 -45 -13 -7 -5 -29 -9 -48 -10
-19 -1 -69 -5 -110 -7 -41 -3 -80 -2 -86 4 -7 6 -16 4 -24 -6 -7 -8 -16 -13
-20 -10 -5 3 -11 1 -15 -4 -3 -6 -12 -8 -20 -4 -9 3 -15 -1 -15 -10 0 -8 -6
-19 -13 -26 -17 -13 -14 -105 3 -126 10 -12 9 -16 -4 -21 -9 -3 -16 -11 -16
-17 0 -6 3 -8 6 -4 3 3 19 -9 36 -26 16 -18 28 -25 26 -17 -2 8 -7 18 -12 21
-4 4 -3 9 3 13 12 8 35 -34 46 -82 4 -18 15 -38 25 -44 10 -6 16 -19 13 -27
-4 -13 -3 -13 5 -2 15 20 32 4 32 -31 0 -25 3 -29 18 -23 47 20 52 19 43 -11
-15 -52 -87 -185 -96 -177 -4 5 -5 0 -2 -10 8 -20 -8 -57 -24 -57 -6 0 -7 5
-4 10 3 6 1 10 -4 10 -6 0 -11 -6 -11 -12 0 -7 -5 -5 -11 6 -9 14 -8 20 1 26
9 5 10 17 5 36 -3 16 -8 43 -10 59 -1 17 -8 29 -15 27 -6 -1 -9 2 -5 8 3 5 13
10 22 10 9 0 13 -3 10 -6 -8 -8 24 -64 36 -64 5 0 4 7 -3 15 -7 9 -13 34 -12
55 2 31 -1 38 -13 34 -17 -7 -21 11 -5 21 5 3 10 12 9 18 0 9 -2 9 -6 0 -9
-24 -20 -13 -20 20 0 60 -2 67 -18 61 -12 -5 -13 -9 -4 -20 7 -8 9 -17 5 -21
-3 -3 -6 -2 -6 3 0 6 -14 10 -30 9 -17 0 -28 -5 -26 -10 2 -6 -6 -11 -18 -10
-30 1 -66 15 -66 25 0 5 -7 7 -15 4 -10 -4 -13 -2 -10 8 4 9 -6 18 -30 27 -19
7 -35 16 -35 21 0 5 -8 6 -17 3 -16 -6 -17 -5 -3 12 14 17 13 18 -3 12 -11 -4
-16 -3 -12 3 3 6 1 10 -6 10 -9 0 -9 3 0 14 9 11 9 14 -1 13 -42 -1 -49 3 -38
23 9 16 8 18 -5 14 -8 -4 -15 -2 -15 3 0 6 -9 20 -20 33 -11 13 -20 19 -20 15
0 -4 -9 0 -20 10 -12 11 -28 20 -36 21 -25 4 -26 10 -10 47 13 33 13 35 -5 40
-16 4 -18 1 -13 -18 3 -13 2 -30 -2 -37 -6 -9 -11 -4 -15 17 -11 48 -10 113 1
120 6 3 10 -2 10 -11 0 -16 1 -16 15 2 17 22 19 7 5 -33 l-10 -28 20 24 c18
21 20 21 20 5 0 -16 3 -16 20 6 15 19 19 34 14 65 -4 29 -1 46 11 60 15 18 16
18 11 2 -3 -11 -9 -30 -12 -43 -10 -40 21 -19 42 28 12 27 34 51 62 69 49 31
78 30 61 -3 -17 -31 -4 -32 45 -3 39 23 46 24 46 10 0 -14 3 -14 26 4 28 22
50 28 39 12 -3 -6 6 -7 22 -4 16 3 35 6 43 7 8 1 25 8 38 15 21 11 28 9 61
-13 47 -33 50 -33 49 5 -1 19 -4 26 -9 17 -4 -7 -11 -9 -15 -5 -5 4 4 20 20
35 20 20 25 22 20 8 -6 -16 -4 -17 12 -7 29 17 48 34 62 59 14 24 7 27 -52 23
-25 -2 -28 0 -18 11 9 11 9 17 0 26 -9 9 -9 12 0 12 11 0 16 -13 13 -32 -3
-18 10 -6 25 23 11 21 12 35 6 41 -7 7 -6 18 3 32 13 20 13 22 -5 23 -11 1
-18 -2 -15 -6 2 -5 -2 -14 -9 -20 -20 -17 -16 8 7 42 15 23 15 27 2 27 -14 0
-20 12 -16 34 1 5 -14 -3 -34 -18 -20 -16 -39 -25 -42 -22 -3 3 -15 0 -27 -6
-18 -10 -16 -5 9 28 17 23 21 33 10 24 -15 -12 -13 -4 9 35 l29 50 -50 -47
c-60 -59 -77 -62 -29 -6 40 46 40 65 1 28 -31 -29 -33 -13 -3 26 20 26 20 27
2 12 -11 -10 -27 -18 -34 -18 -7 0 -22 -8 -33 -17 -22 -20 -16 -2 10 29 8 9
15 22 17 30 3 22 17 39 27 32 6 -3 4 -16 -6 -31 -24 -36 -13 -38 14 -3 12 17
19 35 16 40 -4 6 -3 10 2 9 20 -4 24 2 12 19 -7 9 -9 14 -5 10 5 -4 16 -2 24
5 12 9 16 9 19 0 3 -7 11 -13 19 -13 8 0 14 -7 14 -16 0 -8 3 -13 8 -11 4 3
47 -3 96 -14 85 -18 132 -42 120 -60 -3 -5 2 -6 10 -3 9 3 16 2 16 -4 0 -5 -7
-12 -15 -16 -15 -5 -22 -27 -7 -25 19 3 23 -2 12 -16 -11 -13 -10 -14 4 -9 18
7 22 -11 5 -22 -6 -3 -9 -15 -6 -25 3 -11 1 -19 -5 -19 -6 0 -7 -7 -4 -16 3
-8 2 -13 -3 -10 -12 7 -23 -22 -14 -37 4 -7 0 -8 -12 -3 -18 7 -18 6 0 -14 10
-11 15 -20 10 -20 -4 0 -2 -6 4 -14 10 -11 8 -16 -9 -21 -17 -5 -19 -10 -9
-21 6 -8 8 -14 4 -14 -4 0 -2 -7 5 -15 18 -22 23 -77 8 -87 -8 -5 -3 -8 15 -8
25 0 38 -22 20 -33 -5 -2 -2 -2 5 -1 11 3 16 -9 13 -28 0 -5 4 -8 9 -8 14 0
13 27 -1 36 -6 3 -9 19 -5 34 4 22 1 29 -14 33 -12 3 -18 13 -17 26 1 14 5 17
11 11 6 -6 15 -10 21 -10 5 0 4 4 -4 9 -11 7 -12 13 -4 23 6 7 13 22 15 33 3
19 4 19 23 -2 11 -13 26 -23 34 -23 12 0 11 -3 -3 -13 -11 -8 -15 -19 -10 -30
8 -23 28 -22 22 1 -3 12 2 24 13 31 28 17 23 29 -12 25 -27 -3 -29 -2 -15 11
8 9 13 23 10 33 -3 11 -1 9 6 -3 6 -12 20 -27 32 -34 11 -7 17 -8 13 -2 -3 6
-1 11 4 11 6 0 11 7 11 15 0 8 4 15 8 15 4 0 8 9 8 19 0 15 -3 17 -13 9 -13
-11 -19 3 -6 16 4 3 7 15 8 26 2 19 1 19 -19 3 -20 -17 -20 -17 -6 1 16 21 20
106 5 106 -5 0 -2 6 7 14 11 8 15 21 12 37 -2 13 -1 17 2 9 9 -19 34 -44 34
-33 0 4 7 -1 15 -11 13 -18 15 54 15 607 l0 627 -1950 0 -1950 0 0 -1712z
m2347 431 c34 -16 56 -40 102 -108 61 -91 80 -131 62 -131 -6 0 -11 -7 -11
-17 0 -15 -14 -10 -16 5 -3 29 -75 173 -88 177 -6 3 -24 10 -41 16 -42 16
-135 14 -177 -4 -42 -17 -78 -73 -106 -161 -10 -31 -22 -53 -27 -49 -4 4 -5 0
-2 -9 3 -9 1 -19 -6 -21 -9 -3 -8 -11 3 -31 12 -24 12 -28 0 -36 -13 -8 -13
-10 1 -10 17 0 29 -38 29 -94 0 -32 53 -136 69 -136 18 0 41 12 41 22 0 12
-60 99 -78 113 -10 8 -9 18 7 47 20 41 18 48 -14 48 -26 0 -27 29 -1 78 34 66
95 82 121 32 12 -23 13 -30 3 -30 -17 -1 -52 -31 -61 -52 -3 -10 -11 -18 -16
-18 -12 0 -3 -74 15 -126 11 -30 27 -49 57 -68 24 -15 52 -40 62 -57 11 -16
29 -29 41 -29 11 0 28 -6 37 -13 16 -11 16 -14 2 -35 -21 -29 -41 -28 -60 2
-18 27 -61 40 -69 20 -3 -7 -22 -16 -42 -20 -33 -6 -40 -3 -61 20 -13 15 -23
34 -23 43 0 9 -9 30 -19 47 -30 48 -53 126 -49 163 2 18 1 33 -3 33 -4 0 -10
-17 -12 -37 -2 -22 -4 -6 -5 34 -2 74 21 193 53 271 21 53 85 108 145 127 63
19 87 18 137 -6z m88 -443 c19 -13 69 -27 107 -31 9 -1 22 9 29 22 7 13 15 23
18 23 46 -1 43 -105 -6 -218 -12 -27 -17 -31 -32 -22 -11 5 -24 23 -29 40 -12
32 -29 39 -38 15 -4 -8 -11 -15 -16 -15 -6 0 -7 7 -4 16 8 20 -11 54 -30 54
-8 0 -25 -7 -38 -15 -21 -14 -24 -14 -36 0 -10 12 -10 21 -1 41 6 14 11 40 11
58 0 18 3 36 7 39 11 11 37 8 58 -7z m-702 -208 c-4 -19 -3 -20 6 -8 8 11 11
12 11 2 0 -7 4 -11 9 -8 4 3 7 -6 5 -20 -1 -16 7 -34 23 -50 19 -19 24 -21 19
-8 -4 10 -10 37 -13 61 -5 35 -3 43 10 43 28 0 68 -23 63 -36 -3 -7 0 -15 7
-18 9 -3 8 -7 -2 -14 -9 -6 -10 -12 -2 -16 11 -7 9 -48 -5 -81 -11 -25 -34
-30 -34 -7 0 14 -2 15 -10 2 -10 -16 5 -40 26 -40 23 0 23 -15 -1 -16 -19 -2
-29 8 -50 54 -15 31 -32 61 -40 66 -10 9 -45 96 -45 113 0 2 6 3 14 3 9 0 12
-7 9 -22z m757 -50 c6 -18 18 -47 25 -64 12 -27 11 -35 -1 -52 -9 -13 -11 -23
-4 -27 16 -10 12 -35 -5 -29 -12 5 -15 -1 -14 -22 0 -16 -2 -40 -6 -54 -6 -23
-5 -24 8 -7 14 17 16 15 22 -22 4 -24 2 -47 -5 -58 -10 -16 -11 -15 -7 8 3 21
0 25 -15 21 -12 -3 -18 1 -18 12 0 9 -5 16 -11 16 -6 0 -8 -9 -3 -22 4 -13 7
-28 7 -35 0 -6 11 -16 24 -22 13 -6 23 -19 23 -32 0 -15 5 -19 15 -15 29 11
59 -69 45 -121 -5 -17 -7 -29 -8 -41 -2 -10 -5 -10 -15 -1 -7 7 -11 25 -9 42
3 21 7 25 13 16 6 -10 9 -10 9 -2 0 19 -20 26 -35 13 -8 -7 -15 -22 -15 -34
-1 -19 -2 -19 -15 5 -10 18 -11 35 -6 55 l9 29 10 -25 c8 -21 11 -22 17 -8 4
10 -3 31 -20 55 -26 37 -26 38 -19 8 l7 -30 -22 22 c-12 12 -21 26 -20 30 3
18 -2 33 -10 33 -17 0 -8 -49 15 -75 25 -29 31 -55 14 -55 -5 0 -10 6 -10 13
0 8 -9 24 -20 37 -11 13 -20 17 -20 10 0 -6 -6 -10 -14 -7 -13 5 -32 -35 -27
-57 1 -5 -5 -6 -14 -3 -8 4 -15 3 -16 -1 0 -4 -2 -17 -5 -30 -3 -20 -1 -22 17
-17 16 5 20 3 17 -6 -3 -8 -13 -13 -22 -13 -9 1 -16 -2 -16 -7 0 -5 -4 -9 -10
-9 -5 0 -10 7 -10 15 0 21 -8 19 -36 -12 -23 -26 -25 -26 -19 -5 7 23 -9 32
-18 10 -3 -8 -6 -6 -6 5 -1 9 -8 17 -17 17 -8 0 -12 5 -8 11 3 6 0 16 -7 21
-11 7 -11 11 -1 15 6 2 12 11 12 20 0 13 13 42 41 93 32 58 97 190 101 208 4
12 13 22 22 22 9 0 16 7 16 16 0 8 7 22 15 30 8 9 15 26 15 38 0 13 9 35 20
49 11 14 20 31 20 39 0 10 -3 9 -10 -2 -5 -8 -10 -10 -10 -4 0 12 10 24 20 24
4 0 13 -15 20 -32z m1325 -17 c-8 -17 -20 -33 -25 -36 -6 -4 -29 -29 -50 -57
-36 -45 -40 -55 -40 -106 0 -32 5 -75 10 -97 5 -22 14 -85 20 -140 6 -55 22
-149 36 -208 35 -145 36 -199 6 -229 l-23 -23 14 35 c16 40 11 123 -7 117 -6
-2 -10 -13 -8 -25 3 -19 0 -20 -55 -15 -32 3 -85 16 -117 29 -33 13 -65 24
-72 24 -23 0 -63 22 -69 38 -8 22 58 82 92 83 29 1 106 26 88 29 -12 2 25 18
43 19 19 1 74 -59 68 -75 -3 -8 -1 -14 5 -14 7 0 9 10 4 28 -4 15 -9 43 -11
62 -14 138 -24 219 -29 240 -11 50 -18 149 -11 174 4 15 31 50 60 79 30 28 59
62 65 75 7 12 14 22 17 22 2 0 -2 -13 -11 -29z m-2153 -41 c5 0 16 -7 25 -16
9 -8 21 -13 27 -11 7 3 18 -8 25 -23 7 -17 21 -30 34 -32 14 -2 28 -16 38 -38
19 -39 15 -62 -8 -53 -13 5 -15 1 -9 -20 4 -17 2 -27 -4 -27 -7 0 -9 -8 -5
-21 6 -19 4 -21 -23 -17 -17 2 -29 1 -26 -4 3 -4 11 -8 19 -8 13 0 30 -29 17
-31 -4 0 -17 -2 -29 -5 -21 -4 -50 26 -37 38 3 3 -4 8 -16 11 -24 6 -26 -5 -5
-23 9 -7 14 -19 11 -27 -3 -7 -1 -13 5 -13 6 0 7 -4 4 -10 -3 -5 -13 -10 -21
-10 -8 0 -12 5 -9 10 7 11 -6 13 -30 4 -14 -6 -13 -10 12 -30 21 -18 25 -26
15 -32 -7 -5 -10 -16 -6 -27 5 -13 4 -16 -5 -11 -8 5 -10 19 -6 37 5 21 3 29
-7 29 -8 0 -23 15 -33 32 -28 45 -36 68 -25 68 13 0 17 33 6 52 -8 13 -6 22 7
35 11 11 17 13 17 5 0 -9 4 -10 19 0 10 6 17 18 14 25 -3 7 1 20 8 29 12 14 9
20 -16 41 -17 14 -24 22 -16 18 7 -4 17 -2 22 6 6 10 9 10 9 2 0 -21 32 -52
47 -46 9 4 16 -3 20 -16 3 -11 9 -21 15 -21 15 0 -13 42 -33 47 -10 3 -23 20
-29 39 -6 18 -16 33 -23 31 -6 -1 -12 7 -14 18 -1 11 0 14 3 8 3 -7 10 -13 16
-13z m-488 -93 c27 8 36 8 37 0 0 -8 3 -7 6 1 4 11 8 10 22 -2 9 -9 32 -29 52
-45 20 -17 36 -37 36 -46 0 -21 -14 -19 -27 5 -11 21 -30 27 -30 11 0 -5 7
-16 15 -25 8 -8 15 -23 15 -33 0 -15 -3 -14 -20 7 l-20 25 0 -27 c0 -20 5 -28
18 -28 20 0 42 -18 42 -34 0 -6 -5 -5 -12 2 -7 7 -18 12 -26 12 -10 0 -9 -7 5
-30 13 -22 14 -33 6 -41 -8 -8 -11 -6 -10 7 1 10 -2 19 -8 19 -5 0 -19 6 -30
13 -19 13 -19 13 4 8 23 -5 23 -4 7 12 -14 14 -18 15 -25 3 -12 -19 -4 -36 22
-49 22 -11 22 -11 -3 -12 -14 -1 -20 -4 -13 -6 7 -3 9 -12 6 -21 -4 -11 -2
-14 5 -9 7 4 12 2 12 -3 0 -10 -41 -16 -85 -11 l-20 2 20 -17 c11 -9 14 -14 8
-10 -9 4 -11 1 -7 -9 4 -11 -2 -19 -16 -24 -22 -8 -21 -9 10 -24 l32 -15 -25
-7 c-14 -3 -33 -3 -43 1 -12 4 -15 3 -10 -5 4 -7 14 -12 22 -12 10 0 14 -12
14 -40 0 -34 4 -42 25 -50 14 -5 25 -15 25 -21 0 -7 3 -9 6 -6 13 12 43 -13
37 -31 -5 -14 -3 -15 7 -5 11 10 10 16 -5 33 -16 18 -16 20 -1 26 9 3 25 4 36
1 29 -8 24 0 -11 19 -23 11 -34 13 -39 4 -5 -8 -11 -6 -20 5 -11 13 -10 14 4
9 12 -5 15 -2 10 10 -8 20 9 21 26 1 7 -8 20 -15 29 -14 13 0 14 1 1 6 -24 9
-64 43 -51 43 7 0 20 7 29 16 15 15 15 17 -1 29 -15 11 -15 14 -3 24 12 10 16
8 21 -9 3 -11 11 -18 16 -14 6 3 8 12 5 19 -3 8 0 16 7 19 7 2 -1 5 -18 6 -16
1 -34 3 -40 5 -5 1 -14 3 -20 4 -5 1 -3 5 4 10 9 6 22 6 32 0 10 -5 29 -9 43
-9 23 0 25 2 14 19 -7 11 -21 22 -32 25 -11 3 -17 8 -14 11 12 12 155 -66 151
-83 -1 -5 12 -22 29 -38 17 -16 27 -23 23 -15 -5 10 -4 12 4 7 6 -4 9 -12 5
-17 -3 -6 3 -20 13 -32 11 -12 41 -55 67 -94 48 -74 60 -87 50 -55 -5 14 -4
14 4 2 6 -8 8 -18 5 -23 -7 -12 175 -273 184 -263 3 3 -9 22 -26 43 -36 44
-40 58 -10 43 11 -7 23 -9 27 -6 3 3 0 6 -7 6 -8 0 -11 6 -7 16 4 10 2 13 -6
8 -7 -4 -8 -3 -4 5 4 6 2 18 -4 26 -9 11 -9 15 -1 15 6 0 11 -4 11 -10 0 -5 7
-10 15 -10 13 0 13 4 -2 26 -17 26 -17 27 2 16 29 -15 70 -61 62 -69 -4 -3 -7
-2 -7 4 0 6 -8 14 -17 17 -15 6 -15 5 1 -13 10 -11 23 -17 30 -15 17 6 41 -22
26 -31 -5 -3 -10 -1 -10 4 0 6 -5 11 -12 11 -6 0 -8 -3 -5 -7 4 -3 1 -13 -6
-21 -6 -9 -7 -13 -2 -10 6 4 11 -2 11 -13 0 -12 -4 -15 -10 -9 -16 16 -26 12
-19 -7 3 -10 20 -30 37 -45 17 -15 26 -27 19 -28 -6 0 -15 5 -18 10 -3 6 -11
10 -17 10 -6 0 -1 -12 13 -27 17 -19 19 -25 7 -20 -13 4 -15 2 -11 -10 5 -12
2 -15 -10 -10 -21 8 -22 -2 -1 -31 9 -14 11 -22 4 -22 -11 0 -10 -45 1 -75 5
-13 -11 -15 -36 -4 -29 12 -55 35 -55 48 0 6 -4 11 -9 11 -5 0 -28 29 -52 65
-23 36 -44 65 -46 65 -3 0 26 -78 63 -170 51 -128 109 -183 404 -377 245 -163
331 -235 390 -331 47 -77 101 -118 193 -147 43 -14 92 -25 110 -25 45 0 185
-35 255 -63 81 -33 192 -99 249 -149 69 -59 164 -171 158 -186 -3 -7 -1 -11 4
-8 23 15 159 -286 195 -432 22 -87 27 -118 41 -230 3 -31 7 -143 6 -170 -1 -9
-6 -10 -20 -2 -14 7 -21 6 -24 -3 -3 -6 -6 -3 -6 7 -1 11 -4 16 -8 12 -9 -8
-11 -66 -3 -66 3 0 5 -32 5 -70 1 -39 -1 -70 -4 -70 -14 0 -39 34 -34 47 4 9
-2 22 -13 31 -18 14 -18 14 4 9 22 -5 23 -4 9 16 -8 12 -24 22 -36 21 -16 0
-20 4 -15 18 3 11 -2 30 -11 44 -8 13 -15 30 -14 37 3 19 -12 69 -30 97 -15
23 -15 24 2 11 15 -12 17 -11 17 3 0 9 -6 16 -12 16 -10 0 -10 2 -1 8 8 5 9
20 2 52 -5 25 -11 52 -12 60 -1 8 -8 25 -15 37 -7 12 -12 26 -11 30 1 4 0 11
-1 16 -5 16 -8 28 -9 47 0 11 -7 19 -13 17 -7 -1 -12 6 -12 15 1 10 -2 15 -7
12 -5 -3 -9 4 -9 15 0 12 -5 21 -11 21 -6 0 -9 10 -8 23 2 27 -8 55 -31 82
-10 11 -23 38 -30 60 -7 22 -16 42 -19 45 -3 3 -19 25 -36 50 -41 62 -148 188
-194 229 -84 73 -373 216 -319 157 7 -8 16 -12 19 -10 4 2 9 -2 12 -10 3 -7
21 -16 40 -20 19 -4 40 -13 47 -21 7 -8 19 -15 26 -15 8 0 14 -5 14 -11 0 -5
4 -8 8 -5 4 2 17 -9 27 -25 14 -20 27 -28 44 -26 13 1 26 -4 29 -12 3 -10 0
-12 -12 -8 -20 8 -21 0 0 -21 9 -9 32 -16 50 -16 19 0 34 -4 34 -9 0 -4 -4 -5
-10 -2 -18 11 -10 -5 15 -33 16 -17 25 -22 25 -12 0 8 14 1 35 -20 25 -24 31
-36 22 -42 -8 -5 -4 -8 11 -8 29 0 67 -57 50 -77 -7 -9 -7 -13 1 -13 6 0 11
-11 11 -25 0 -14 5 -25 10 -25 6 0 10 5 10 10 0 25 20 6 31 -30 7 -21 23 -49
35 -61 25 -23 32 -49 14 -49 -5 0 -10 6 -10 13 -1 13 -34 57 -44 57 -10 0 -7
-35 7 -63 6 -15 15 -27 20 -27 4 0 7 -5 7 -11 0 -5 -6 -7 -12 -3 -10 6 -10 4
0 -7 17 -18 15 -29 -5 -29 -15 0 -15 -1 -1 -12 22 -18 30 -58 11 -58 -8 0 -11
5 -8 10 3 6 1 10 -5 10 -21 0 -4 -25 19 -28 18 -3 20 -6 10 -18 -6 -7 -15 -11
-20 -8 -5 3 -6 -3 -2 -12 5 -13 2 -16 -9 -11 -22 8 -11 -32 14 -54 24 -21 23
-24 -10 -47 l-28 -20 -24 25 c-23 24 -24 26 -4 19 15 -4 23 -2 27 8 6 15 -18
30 -34 20 -5 -3 -14 6 -21 20 -6 14 -15 26 -21 26 -5 0 -7 6 -4 14 3 8 -1 17
-10 20 -12 5 -14 1 -10 -14 3 -11 1 -20 -4 -20 -5 0 -9 -5 -9 -11 0 -5 4 -8 9
-5 5 3 12 -1 15 -9 4 -11 0 -15 -12 -13 -11 2 -17 -3 -16 -15 2 -14 -4 -17
-27 -13 -15 2 -28 1 -27 -2 3 -15 -15 -42 -23 -36 -5 3 -9 0 -9 -5 0 -6 7 -11
16 -11 8 0 22 -6 29 -14 11 -11 11 -18 -1 -41 -17 -32 -17 -38 -4 -30 5 3 10
1 10 -5 0 -7 -8 -9 -21 -5 -16 5 -20 3 -17 -11 5 -32 -30 -27 -73 10 -23 19
-45 34 -49 33 -14 -4 -51 46 -45 61 3 9 -1 12 -15 7 -15 -5 -20 -2 -20 13 0
15 -5 18 -25 14 -29 -5 -34 12 -7 27 14 9 14 10 1 11 -8 0 -20 -5 -26 -11 -20
-20 -44 -3 -39 26 3 18 1 25 -7 22 -7 -2 -12 -9 -12 -15 0 -24 -20 -31 -65
-22 -25 4 -92 11 -150 15 -166 10 -191 12 -197 19 -3 3 2 8 11 12 23 9 20 27
-4 21 -15 -4 -20 -1 -18 11 2 10 -4 17 -12 17 -8 0 -18 4 -21 8 -3 5 -29 10
-56 12 -45 3 -52 1 -63 -21 -16 -29 -34 -32 -27 -4 5 19 -30 51 -63 57 -8 1
-20 10 -27 19 -7 10 -13 12 -13 6 0 -7 -5 -12 -11 -12 -15 0 -39 26 -32 34 4
3 1 6 -5 6 -5 0 -18 3 -28 7 -12 4 -15 3 -10 -5 4 -7 2 -12 -3 -12 -6 0 -11
11 -11 24 0 18 -7 25 -30 30 -16 3 -30 12 -30 20 0 15 -21 26 -51 26 -11 0
-19 7 -20 18 0 10 -3 12 -6 5 -2 -7 -13 -13 -23 -13 -10 0 -22 -5 -25 -11 -5
-6 -12 -4 -20 8 -7 10 -11 21 -8 25 2 5 -2 15 -11 23 -11 12 -12 23 -5 47 12
45 12 45 -14 14 -23 -27 -61 -28 -51 -2 7 19 -42 66 -70 66 -14 0 -31 9 -39
21 -8 11 -21 19 -28 17 -8 -1 -24 7 -37 20 -12 12 -19 22 -14 22 4 0 0 5 -9
10 -12 7 -17 22 -15 50 0 22 -3 42 -9 44 -5 3 -1 12 10 20 11 9 29 25 40 35
12 11 41 25 65 32 l45 12 -33 9 c-25 7 -43 4 -78 -12 -26 -11 -51 -17 -56 -14
-6 4 -43 -28 -84 -70 -41 -42 -78 -76 -83 -76 -4 0 -24 -16 -44 -35 -36 -35
-55 -46 -41 -23 4 6 -1 17 -10 24 -16 11 -15 13 6 29 21 15 21 16 3 13 -14 -2
-20 3 -20 17 0 11 -8 21 -18 23 -9 2 -17 8 -17 14 0 5 -6 8 -14 5 -8 -3 -17
-3 -20 0 -9 10 15 33 34 33 9 0 25 9 35 20 13 14 22 17 29 10 15 -15 24 -12
22 7 0 10 8 19 19 21 11 2 27 10 35 18 17 14 20 14 121 14 70 -1 188 23 198
39 4 5 23 8 44 6 20 -1 34 1 31 6 -3 5 0 9 5 9 6 0 11 -5 11 -11 0 -8 5 -8 15
1 9 7 27 10 45 6 17 -3 30 -1 30 4 0 6 7 10 15 10 8 0 15 -4 15 -9 0 -9 14
-11 117 -13 29 -1 50 -4 48 -8 -3 -5 3 -11 12 -14 9 -4 19 -2 23 4 5 7 11 6
19 -4 7 -8 19 -12 27 -9 8 3 14 -1 14 -8 0 -11 2 -11 10 1 11 17 85 17 106 -1
11 -9 14 -9 14 0 0 7 5 9 10 6 6 -3 10 3 10 14 0 11 -5 23 -10 26 -8 5 -7 12
2 23 11 13 10 15 -8 10 -16 -4 -21 -1 -20 11 0 9 -3 16 -9 15 -5 0 -21 10 -34
23 -13 12 -19 23 -13 23 7 0 12 5 12 10 0 6 -12 8 -27 5 -16 -3 -22 -2 -15 1
18 8 15 27 -4 20 -10 -4 -13 -2 -8 6 5 8 -1 9 -22 4 l-29 -8 24 26 c27 29 18
35 -17 10 -17 -12 -22 -12 -20 -2 2 9 -9 13 -40 12 -26 0 -38 2 -30 7 10 7 9
9 -3 9 -20 0 -33 27 -16 34 7 2 4 5 -6 5 -10 1 -20 -6 -23 -14 -4 -8 -10 -12
-15 -9 -5 3 -9 0 -9 -7 0 -6 -9 -1 -20 12 -14 17 -18 19 -14 7 3 -10 3 -18 -1
-18 -4 0 -14 8 -22 18 -13 15 -13 15 -8 -8 4 -16 3 -20 -3 -12 -5 7 -16 10
-24 7 -9 -4 -18 0 -21 8 -6 17 -57 11 -69 -7 -6 -8 -10 -8 -15 0 -5 6 -28 11
-53 11 -25 0 -53 4 -62 8 -13 5 -18 3 -18 -10 0 -13 -6 -16 -26 -11 -15 4 -23
3 -20 -2 3 -6 -12 -9 -34 -9 -26 1 -40 5 -40 14 0 15 -16 17 -25 3 -9 -15 -27
-12 -20 3 4 6 0 4 -9 -7 -14 -17 -42 -14 -31 4 3 5 1 11 -5 15 -5 3 -10 1 -10
-4 0 -6 -7 -11 -15 -11 -8 0 -15 4 -15 10 0 6 -9 6 -22 2 -27 -10 -58 -5 -58
10 0 5 -6 8 -14 5 -7 -3 -18 -1 -24 5 -8 8 -15 8 -26 -1 -19 -16 -56 5 -57 34
-1 17 -2 17 -6 3 -5 -21 -23 -24 -24 -5 0 6 -4 3 -9 -8 -8 -19 -8 -19 -17 4
-8 20 -11 21 -16 8 -7 -19 -47 -23 -47 -6 0 8 -5 7 -16 -2 -13 -10 -17 -10
-24 1 -4 7 -15 10 -23 7 -9 -3 -17 -1 -19 4 -2 7 -12 7 -30 0 -22 -8 -27 -7
-31 7 -2 9 -3 4 -2 -11 3 -44 -14 -42 -21 3 -6 37 -23 56 -25 28 0 -7 -4 -3
-9 9 -12 29 -67 28 -62 -2 3 -16 2 -17 -12 -6 -10 9 -13 18 -7 25 10 13 11 46
0 46 -4 0 -14 7 -23 15 -13 13 -15 13 -22 -7 -6 -21 -8 -19 -21 16 -11 32 -11
41 -1 47 10 6 9 12 -6 26 -17 17 -18 17 -11 -4 5 -17 2 -23 -10 -23 -9 0 -13
5 -10 11 4 6 -1 17 -11 24 -25 19 -35 19 -28 0 4 -8 2 -15 -4 -15 -8 0 -9 14
-3 55 1 6 5 4 10 -3 6 -10 10 -10 20 2 11 13 10 18 -3 31 -20 21 -20 21 6 63
12 20 16 32 10 28 -7 -4 -12 -1 -12 8 0 9 -4 16 -10 16 -16 0 -12 18 10 40 20
20 20 20 0 20 -11 0 -20 5 -20 10 0 6 5 10 11 10 5 0 7 5 4 10 -3 6 0 10 7 10
7 0 14 12 15 27 0 15 6 29 12 31 6 2 11 15 11 28 0 13 5 24 11 24 6 0 9 7 5
15 -3 9 0 15 10 15 8 0 13 4 10 9 -9 14 4 41 19 41 7 0 12 8 11 18 0 9 4 16
11 15 7 -2 10 4 7 12 -4 8 -1 15 6 15 7 0 10 7 6 16 -5 12 -1 14 16 8 17 -5
20 -3 15 10 -4 10 -1 16 8 16 18 0 20 31 3 48 -9 9 -9 18 0 37 10 22 15 24 34
15 21 -10 21 -10 6 3 -21 17 -23 27 -4 27 7 0 25 9 39 20 14 11 39 23 56 26
25 5 29 9 20 20 -16 19 0 18 22 -2 11 -9 19 -12 23 -5 4 5 -6 17 -21 25 -26
14 -27 15 -5 16 12 0 22 -4 22 -9 0 -16 34 -17 46 -2 10 13 14 13 28 2 9 -7
16 -11 16 -7 0 3 0 8 0 11 -1 9 25 33 30 30 4 -2 12 6 20 18 12 20 12 21 -3 8
-16 -12 -17 -10 -13 20 2 26 8 35 25 37 11 2 21 8 21 14 0 6 -11 8 -27 3 -22
-5 -25 -4 -16 5 14 15 80 29 148 31 42 1 45 2 20 8 -16 4 -49 6 -72 5 -48 -3
-57 11 -18 26 26 10 35 23 13 18 -28 -5 -57 13 -51 30 6 15 5 15 -10 4 -9 -8
-15 -19 -14 -24 1 -6 -4 -13 -12 -16 -10 -3 -9 4 4 26 15 25 16 33 6 46 -7 8
-9 21 -5 28 6 10 3 9 -9 -1 -13 -10 -14 -17 -7 -26 7 -9 8 -15 1 -19 -6 -4 -8
-13 -4 -21 3 -8 0 -15 -7 -15 -9 0 -10 -3 -1 -13 6 -8 7 -18 3 -22 -4 -5 -2
-5 4 -2 7 4 14 -3 17 -16 5 -19 2 -17 -23 11 -18 19 -30 26 -30 18 0 -8 -6
-17 -12 -19 -8 -3 -6 -6 5 -6 25 -1 21 -21 -5 -22 -17 -1 -19 -2 -5 -6 9 -2
17 -9 17 -14 0 -11 -41 9 -52 25 -4 7 -13 4 -26 -7 -10 -9 -26 -17 -36 -17 -9
0 -27 -5 -38 -11 -18 -9 -20 -9 -15 4 3 9 1 17 -5 19 -6 2 -12 16 -12 30 -1
20 2 24 10 17 8 -6 14 -6 18 -1 3 6 -1 15 -9 22 -8 7 -12 16 -9 21 3 5 1 9 -5
9 -5 0 -12 -6 -14 -12 -3 -8 -6 -6 -6 5 -1 10 7 20 17 23 43 14 57 23 26 17
-17 -3 -34 -1 -38 5 -3 5 11 13 31 17 26 5 33 9 23 15 -12 7 -12 10 2 15 21 8
30 32 16 41 -7 4 -8 3 -4 -4 4 -7 2 -12 -3 -12 -6 0 -11 8 -11 19 0 24 -26 48
-33 29 -8 -24 -46 21 -45 53 1 16 5 29 10 29 4 0 8 -2 8 -4 0 -2 3 -12 7 -22
4 -12 3 -15 -5 -10 -7 4 -12 3 -12 -3 0 -5 9 -9 19 -8 33 2 52 67 20 67 -6 0
-7 -9 -4 -20 3 -11 2 -20 -4 -20 -12 0 -24 36 -17 49 9 14 40 2 54 -20 7 -10
8 -19 3 -19 -18 0 -18 -49 0 -66 22 -20 43 -10 30 14 -5 9 -9 30 -9 46 0 21
-8 37 -27 51 -24 20 -25 24 -11 37 11 11 12 18 3 27 -8 8 -8 11 1 11 7 0 12 7
12 15 0 8 5 15 11 15 8 0 7 5 -1 15 -11 13 -10 14 5 9 13 -5 16 -4 11 4 -4 7
-3 12 3 12 5 0 9 -9 8 -20 -1 -11 -5 -20 -9 -20 -4 0 -8 -4 -8 -10 0 -15 30
-12 36 4 3 8 15 11 30 8 16 -3 24 0 24 9 0 11 2 11 9 0 8 -12 11 -9 16 12 4
15 4 34 1 43 -8 21 35 99 45 82 6 -9 16 -9 43 -1z m-274 -389 c0 -5 -3 -7 -7
-5 -5 2 -16 -4 -25 -15 -10 -10 -13 -18 -8 -18 6 0 10 -4 10 -10 0 -5 -7 -10
-16 -10 -14 0 -14 -2 -3 -16 11 -13 11 -15 -2 -13 -7 1 -22 -1 -31 -5 -16 -7
-16 -11 -3 -37 14 -26 14 -28 -2 -22 -11 4 -14 3 -9 -5 4 -7 2 -12 -3 -12 -7
0 -7 -7 1 -20 10 -16 9 -25 -5 -49 -9 -16 -17 -37 -17 -46 0 -9 -5 -13 -11 -9
-8 5 -8 1 0 -14 14 -26 14 -35 0 -27 -6 4 -17 -1 -25 -11 -9 -11 -13 -14 -10
-7 9 18 -24 32 -54 23 -23 -7 -26 -5 -26 14 1 11 8 28 17 36 9 8 14 22 11 30
-5 13 -3 13 11 1 15 -12 17 -11 17 3 0 9 7 16 15 16 8 0 14 3 13 8 -3 14 14
42 22 37 5 -3 11 -1 15 5 3 5 1 10 -5 10 -6 0 -8 5 -5 10 4 6 10 8 15 5 4 -3
13 2 20 10 12 14 7 20 -14 16 -5 -1 -2 8 6 21 8 13 15 36 16 51 1 16 9 35 17
43 8 9 13 20 10 25 -4 5 -1 9 4 9 6 0 11 8 11 17 0 14 4 12 25 -7 14 -13 25
-27 25 -32z m2281 -303 c1 -5 1 -13 0 -17 -2 -12 18 -9 50 8 38 19 53 14 74
-27 14 -25 14 -33 4 -40 -10 -6 -10 -11 1 -23 7 -9 11 -18 9 -19 -2 -1 -15
-11 -28 -22 -18 -14 -23 -16 -19 -5 3 8 2 24 -3 35 -7 18 -8 18 -8 2 -1 -10
-5 -16 -10 -13 -13 9 -61 -18 -61 -34 0 -13 -1 -13 -10 0 -8 12 -10 12 -15 -2
-4 -9 -13 -14 -20 -12 -7 3 -22 -3 -32 -13 -25 -24 -61 -28 -59 -6 2 24 -21
27 -29 4 -6 -19 -8 -20 -30 -5 -25 16 -41 5 -31 -21 3 -9 -1 -15 -9 -15 -8 0
-15 9 -15 21 0 11 -4 17 -10 14 -6 -3 -7 1 -3 10 4 12 8 13 13 5 12 -19 30 -2
30 26 0 14 7 32 15 40 13 14 15 13 15 -4 0 -11 -6 -23 -12 -25 -8 -4 -9 -6 -2
-6 17 -1 38 28 39 52 0 14 8 23 20 25 24 5 45 21 45 34 0 6 -7 5 -15 -2 -16
-14 -18 -10 -9 14 3 9 10 13 15 10 5 -3 9 3 9 13 0 14 2 15 9 5 13 -22 53 7
47 33 -4 17 -2 16 14 -5 11 -14 20 -29 21 -35z m-2448 -1188 c9 -4 17 -12 17
-19 0 -9 -3 -9 -12 0 -10 10 -15 6 -23 -19 l-11 -32 -18 37 c-10 21 -20 35
-23 33 -2 -3 0 -15 7 -26 12 -24 5 -45 -12 -35 -7 4 -8 2 -4 -4 10 -16 -17
-15 -32 0 -7 7 -12 8 -12 4 0 -4 10 -16 23 -27 13 -10 17 -18 9 -19 -8 0 -10
-5 -6 -12 4 -7 -7 0 -24 16 l-30 28 8 -36 c7 -33 7 -35 -12 -25 -17 9 -19 8
-16 -8 2 -10 -6 -26 -19 -36 -13 -10 -23 -27 -23 -37 0 -11 -7 -17 -17 -16
-12 1 -17 -5 -15 -17 2 -12 -4 -21 -18 -24 -15 -4 -19 -11 -15 -24 4 -13 2
-19 -6 -17 -7 2 -15 -6 -17 -17 -10 -46 -50 -55 -79 -17 -11 14 -13 14 -13 1
0 -8 19 -25 43 -37 33 -17 37 -22 19 -22 -13 0 -21 -4 -18 -9 4 -5 -4 -7 -16
-4 -22 5 -22 5 -5 -9 17 -13 17 -15 3 -27 -12 -10 -19 -10 -38 3 -21 15 -21
16 -3 16 16 0 17 2 6 9 -12 8 -12 12 -2 25 7 8 10 20 6 27 -6 8 -9 8 -15 -1
-5 -8 -9 -7 -13 4 -3 8 1 22 9 31 9 9 13 22 10 30 -3 8 -1 15 4 15 6 0 10 6
10 14 0 17 18 31 27 22 4 -3 -2 -15 -12 -26 -17 -19 -17 -22 -2 -37 15 -15 16
-15 11 3 -3 13 4 29 22 47 15 15 23 27 19 27 -4 0 -2 7 5 15 6 8 9 19 5 25 -3
5 1 10 9 10 9 0 16 5 16 11 0 5 -4 7 -10 4 -5 -3 -10 1 -10 9 0 10 6 13 16 9
13 -5 15 -2 10 14 -8 25 23 28 41 4 10 -14 11 -13 6 7 -3 12 -9 24 -13 27 -5
3 -6 14 -3 26 4 16 11 19 29 15 14 -4 24 -2 24 4 0 6 -4 8 -10 5 -14 -9 -12 8
3 25 6 8 3 7 -9 -3 -20 -16 -20 -16 -20 12 0 20 4 27 13 24 7 -3 13 1 13 7 0
9 6 8 18 -3 14 -12 21 -14 29 -6 15 15 48 -15 37 -32 -5 -8 -3 -9 6 -4 7 4 15
2 20 -5 5 -8 9 -5 12 8 4 15 2 19 -8 15 -21 -8 -17 1 13 36 27 30 28 30 48 12
11 -10 28 -21 38 -24z m485 -950 c-11 -20 -23 -15 -23 10 0 9 -7 19 -15 21
-13 5 -13 3 -1 -11 7 -10 9 -17 3 -17 -5 0 -8 -9 -5 -20 3 -11 12 -20 20 -20
8 0 11 -5 7 -12 -4 -7 -3 -8 4 -4 6 4 9 13 5 21 -3 9 1 15 9 15 8 0 23 9 33
20 24 27 39 11 22 -23 -8 -15 -17 -23 -21 -19 -4 3 -15 -3 -24 -14 -9 -12 -29
-24 -44 -28 -25 -6 -26 -4 -22 21 3 23 2 25 -7 10 -5 -9 -7 -26 -4 -37 5 -17
10 -18 27 -9 11 6 22 8 25 5 3 -3 -9 -12 -28 -20 -31 -13 -35 -13 -40 2 -5 14
-7 13 -13 -6 -6 -19 -10 -21 -22 -11 -22 18 -14 64 10 64 11 0 22 7 24 15 4
12 3 13 -10 3 -8 -7 -17 -10 -21 -7 -3 3 -14 -3 -24 -13 -13 -13 -17 -26 -12
-39 11 -28 10 -54 -2 -54 -5 0 -8 4 -5 9 9 14 -38 22 -49 8 -12 -15 -75 -10
-75 6 0 7 -7 4 -14 -6 -8 -10 -20 -15 -30 -11 -10 4 -16 1 -16 -9 0 -8 -7 -17
-15 -21 -8 -3 -15 -1 -15 4 0 6 -7 10 -15 10 -9 0 -15 -9 -15 -21 0 -15 -5
-19 -15 -15 -8 3 -15 1 -15 -5 0 -5 -8 -9 -17 -7 -10 2 -17 -2 -16 -8 1 -6 -8
-10 -20 -10 -12 1 -22 -4 -22 -11 0 -6 -3 -15 -7 -19 -5 -4 -8 -2 -8 5 0 7 -4
9 -10 6 -5 -3 -10 -15 -10 -27 0 -13 -5 -18 -14 -15 -8 3 -16 -2 -19 -14 -3
-10 -12 -19 -21 -19 -10 0 -13 -6 -10 -15 4 -9 0 -15 -9 -15 -8 0 -26 -13 -39
-29 -14 -16 -34 -34 -46 -40 -12 -6 -22 -18 -22 -26 0 -7 -5 -17 -12 -21 -7
-5 -8 -3 -3 6 5 9 4 11 -3 6 -7 -4 -12 -14 -12 -22 0 -8 -4 -14 -10 -14 -5 0
-7 -7 -4 -15 4 -8 2 -15 -4 -15 -6 0 -13 6 -15 13 -3 7 -6 5 -6 -5 -1 -10 -5
-18 -11 -18 -5 0 -7 -7 -4 -15 4 -8 1 -21 -5 -29 -6 -7 -8 -22 -4 -32 6 -16 4
-17 -8 -7 -12 10 -17 8 -27 -8 -7 -11 -17 -17 -22 -14 -5 3 -7 0 -5 -8 4 -9
-3 -13 -22 -13 -37 1 -46 38 -21 84 10 18 16 38 12 43 -3 6 2 20 13 31 10 12
13 18 6 14 -9 -5 -12 2 -10 23 2 25 5 28 22 19 20 -9 20 -9 1 6 -21 17 -30 56
-13 56 5 0 3 8 -4 17 -12 15 -12 16 3 10 15 -5 16 -4 5 13 -21 35 -31 23 -28
-35 0 -11 -2 -14 -5 -7 -4 9 -9 10 -19 2 -9 -8 -15 -8 -20 0 -3 5 -1 10 4 10
6 0 11 5 11 11 0 6 -6 9 -14 6 -11 -4 -11 -1 -2 18 6 13 14 21 17 19 12 -7 17
50 7 69 -14 27 3 40 41 32 31 -7 43 -25 17 -25 -18 0 -27 -36 -16 -66 11 -29
24 -32 17 -4 -3 11 -1 18 4 14 5 -3 9 9 9 25 0 17 5 31 11 31 8 0 8 4 0 13 -8
10 -7 19 3 33 10 13 11 23 4 31 -17 20 0 15 21 -6 11 -11 15 -21 9 -23 -6 -2
-11 -24 -12 -48 -1 -25 -7 -56 -13 -70 -5 -14 -13 -47 -16 -75 -3 -27 -3 -43
0 -35 3 8 11 21 17 29 6 7 11 26 11 42 1 29 15 55 15 27 0 -9 7 -19 16 -22 8
-3 13 -10 9 -15 -3 -5 0 -13 6 -16 7 -5 10 2 7 21 -1 16 -10 32 -18 36 -11 5
-9 7 8 7 12 1 22 6 22 11 0 6 7 10 15 10 8 0 15 7 15 15 0 9 6 12 17 8 12 -5
15 -2 10 10 -3 8 1 21 10 29 9 7 22 26 29 43 l13 30 1 -27 c0 -16 4 -28 10
-28 5 0 7 7 4 15 -6 13 6 20 29 16 14 -2 19 29 7 44 -9 11 -5 15 23 20 22 4
39 15 47 31 7 13 17 21 22 18 4 -3 8 4 8 15 0 23 -15 28 -23 9 -4 -10 -6 -10
-6 0 -1 7 7 15 17 18 9 3 25 10 35 15 11 6 17 6 17 -1 0 -5 5 -10 12 -10 6 0
20 -7 30 -17 17 -15 18 -15 18 1 0 13 5 16 20 11 11 -4 20 -2 20 4 0 6 -5 11
-12 11 -9 0 -9 3 -1 11 6 6 9 19 6 28 -4 9 3 6 16 -8 23 -26 43 -22 21 4 -19
23 -8 26 25 9 19 -9 25 -10 18 -3 -19 19 -16 34 3 18 12 -10 20 -10 34 -1 11
6 26 9 35 6 8 -3 15 -1 15 5 0 6 9 11 20 11 15 0 21 -9 26 -40 9 -53 22 -51
17 2 l-4 43 23 -28 c24 -28 24 -28 42 -8 10 11 23 18 29 14 6 -4 8 0 4 11 -4
11 4 6 22 -11 23 -22 27 -32 19 -46z m1447 -227 c-3 -5 -14 -10 -23 -11 -11 0
-12 -3 -4 -6 6 -2 12 -11 12 -19 0 -9 7 -14 18 -12 40 6 53 -25 30 -74 -13
-28 -49 -39 -94 -30 -19 3 -23 9 -19 23 5 14 2 17 -9 13 -12 -5 -15 -2 -10 9
7 19 61 40 69 27 7 -11 35 -2 35 11 0 4 -7 6 -15 3 -8 -4 -15 -1 -15 5 0 6 -7
11 -15 11 -8 0 -15 -4 -15 -10 0 -5 -9 -10 -19 -10 -11 0 -23 -4 -26 -10 -8
-13 -25 -13 -25 1 0 6 7 17 16 26 8 9 13 22 9 30 -4 11 -1 13 11 9 8 -3 25 1
37 9 24 17 62 20 52 5z m-1484 -398 c0 -16 1 -16 7 0 7 16 10 16 36 3 15 -8
36 -15 45 -15 9 0 22 -5 29 -12 17 -17 25 -3 12 21 -7 14 -7 21 0 21 5 0 10
-3 10 -7 0 -10 66 -10 76 -1 4 4 14 2 22 -4 11 -10 17 -9 27 5 8 12 15 14 20
8 3 -6 12 -11 18 -11 7 0 6 4 -3 11 -12 9 -11 9 5 4 30 -11 68 -12 82 -2 12 8
53 -11 53 -25 0 -4 6 -5 14 -2 14 5 101 -38 95 -48 -2 -3 11 -18 29 -33 34
-29 62 -73 62 -99 0 -11 -10 -16 -32 -16 -18 1 -91 -2 -163 -5 -71 -3 -138 -6
-147 -6 -10 0 -18 -4 -18 -9 0 -5 -7 -6 -17 -3 -11 4 -14 3 -9 -5 11 -17 -9
-15 -24 3 -7 9 -15 13 -18 11 -2 -3 -20 1 -39 9 -44 18 -46 18 -40 1 3 -8 -1
-17 -9 -20 -8 -3 -14 0 -14 7 -1 7 -6 5 -14 -5 -7 -10 -16 -15 -20 -11 -3 4
-12 -2 -20 -12 -8 -11 -20 -16 -30 -12 -9 4 -16 2 -16 -3 0 -17 -18 -11 -23 8
-4 14 -6 14 -12 -5 -6 -18 -11 -21 -25 -13 -10 5 -30 9 -46 8 -16 -1 -37 2
-46 6 -13 6 -18 4 -18 -8 0 -9 -6 -16 -14 -14 -8 2 -25 -9 -39 -24 -26 -28
-47 -36 -47 -18 0 6 7 10 16 10 14 0 14 1 0 16 -9 8 -16 24 -16 34 0 10 -4 20
-9 22 -15 5 7 48 25 48 10 0 14 5 11 14 -4 9 -1 13 6 10 8 -3 12 9 12 38 0 33
5 45 20 54 15 8 23 6 33 -5 10 -14 11 -12 6 12 -5 21 -3 27 11 27 12 0 15 5
11 18 -5 14 -4 14 9 -2 8 -11 15 -15 15 -9 0 6 13 14 29 18 22 5 28 11 24 23
-4 14 -3 14 5 3 12 -17 47 -7 36 10 -4 8 -3 9 4 5 7 -4 12 -15 13 -24z m1469
-348 c10 -24 14 -26 51 -21 48 6 70 0 63 -17 -8 -20 85 -31 100 -12 6 7 25 16
41 20 27 6 28 5 13 -7 -10 -8 -18 -20 -18 -27 0 -8 6 -9 18 -4 28 13 108 7
135 -11 18 -11 27 -13 32 -5 14 23 38 -30 32 -71 -4 -33 -2 -39 11 -37 11 2
18 -5 20 -19 2 -12 11 -24 20 -27 26 -9 26 -65 0 -93 -20 -22 -21 -25 -6 -40
13 -12 14 -22 7 -42 -8 -19 -7 -28 3 -36 7 -5 14 -21 16 -34 1 -14 10 -33 19
-43 15 -16 15 -18 0 -18 -23 0 -27 -12 -17 -55 6 -27 5 -44 -2 -53 -8 -9 -8
-16 -2 -20 6 -4 10 -20 9 -37 -1 -16 4 -40 11 -54 11 -21 11 -28 -2 -42 -9
-10 -23 -15 -32 -12 -10 4 -13 2 -8 -5 4 -7 13 -12 21 -12 20 0 30 -21 14 -31
-12 -8 -12 -11 1 -19 16 -10 16 -10 -32 -14 -7 -1 -12 5 -10 12 1 8 -3 12 -10
9 -7 -2 -11 -11 -9 -18 2 -8 6 -22 9 -32 4 -15 -1 -13 -23 7 -15 14 -32 26
-36 26 -5 0 -9 6 -9 13 0 18 -36 47 -47 36 -5 -5 -8 12 -7 41 2 47 1 49 -17
39 -21 -11 -59 -4 -59 12 0 5 -7 9 -16 9 -10 0 -14 6 -11 14 3 8 3 17 -1 21
-4 4 -7 11 -7 17 0 5 -17 16 -38 23 -44 15 -74 39 -83 67 -4 12 -11 17 -21 14
-11 -4 -13 -2 -9 9 8 21 -3 45 -20 45 -8 0 -19 11 -26 25 -6 13 -14 22 -18 20
-15 -9 -32 25 -26 50 5 19 3 25 -10 25 -27 0 -94 79 -94 111 0 15 -4 31 -10
34 -16 10 -12 35 6 35 11 0 14 6 9 20 -4 12 -2 20 6 20 11 0 11 14 -7 115 -2
17 -5 42 -5 58 0 15 -4 27 -9 27 -6 0 -10 4 -10 8 0 5 20 9 45 11 41 2 46 -1
55 -25z m675 -191 c48 -32 92 -79 101 -107 4 -11 12 -26 19 -33 15 -15 24 1
26 45 2 52 18 -50 17 -111 0 -39 4 -62 14 -70 8 -7 22 -25 32 -40 10 -16 20
-26 23 -23 3 2 -3 17 -14 33 -10 15 -24 42 -31 58 l-12 30 24 -29 c61 -73 164
-302 181 -404 9 -53 -1 -54 -15 -2 -6 22 -16 40 -21 40 -7 0 -8 8 -4 18 4 12
3 14 -5 6 -8 -8 -7 -24 2 -57 7 -26 15 -47 18 -47 7 0 9 -5 65 -195 44 -145
62 -205 71 -231 6 -15 4 -15 -12 5 -17 20 -22 21 -32 8 -10 -11 -9 -22 3 -50
18 -42 19 -61 5 -52 -6 4 -17 2 -24 -4 -16 -13 -29 9 -20 34 3 8 -3 27 -13 42
-10 15 -26 44 -35 63 -9 19 -21 46 -28 60 -6 15 -12 42 -12 60 -1 21 -10 46
-25 64 -13 16 -22 35 -18 44 3 8 -7 40 -21 71 -15 31 -32 67 -38 79 -6 13 -23
30 -38 38 -15 8 -28 19 -28 25 0 6 5 7 10 4 13 -8 13 1 0 23 -5 9 -15 28 -20
42 -6 14 -23 47 -39 75 -16 27 -27 53 -24 58 2 4 -1 6 -8 5 -8 -2 -17 20 -25
60 -8 34 -18 71 -24 81 -5 11 -10 33 -10 50 0 19 -8 35 -20 44 -12 8 -20 18
-18 23 3 14 -12 53 -41 103 -15 25 -28 56 -28 69 -2 31 41 30 92 -5z m-343
-1187 c32 -1 60 -5 64 -9 4 -4 18 -7 31 -7 34 0 28 -19 -12 -36 -28 -11 -44
-12 -73 -4 -20 5 -65 10 -99 10 -34 0 -74 5 -88 10 -57 22 1 52 80 43 22 -2
66 -6 97 -7z m-478 -560 c20 -47 54 -122 76 -167 39 -80 50 -129 30 -129 -5 0
-7 -8 -4 -17 5 -17 5 -17 -9 0 -16 19 -32 24 -21 5 4 -7 3 -8 -5 -4 -9 6 -9
11 0 22 9 11 8 14 -5 14 -10 0 -14 5 -10 11 7 12 -21 84 -44 111 -8 9 -11 22
-7 27 3 6 -1 11 -9 11 -9 0 -13 6 -10 14 3 7 -2 16 -10 19 -9 4 -16 11 -16 17
0 6 4 8 10 5 6 -3 7 1 4 9 -3 9 -10 16 -14 16 -14 0 -39 60 -33 77 5 12 3 14
-8 8 -11 -7 -11 -5 1 11 19 24 32 34 41 29 3 -3 23 -43 43 -89z"/>
<path d="M2600 4155 c-24 -24 -49 -60 -55 -79 l-12 -34 43 -11 c34 -9 45 -17
50 -36 3 -14 12 -25 19 -25 15 0 27 -37 15 -45 -5 -3 -11 1 -13 7 -4 10 -6 9
-6 -1 -1 -17 28 -40 52 -41 9 0 17 -7 17 -16 0 -11 5 -14 16 -10 12 4 15 2 10
-9 -4 -11 2 -15 20 -15 17 0 24 -4 21 -13 -7 -18 19 -52 28 -37 6 9 10 9 17
-1 6 -10 8 -1 5 26 -2 23 2 52 10 68 13 25 12 27 -7 27 -21 0 -27 14 -11 24 5
3 7 15 4 25 -3 14 2 21 18 26 l24 8 -24 8 c-14 6 -21 15 -18 24 4 8 1 12 -7 9
-16 -6 -50 31 -41 46 3 6 3 10 -2 9 -19 -3 -57 3 -45 8 6 2 12 9 12 15 0 6 -7
7 -16 4 -14 -5 -15 -4 -5 8 27 32 -17 49 -55 21 -29 -19 -36 -9 -18 26 21 41
5 36 -46 -16z"/>
<path d="M3254 4158 c58 -40 66 -49 53 -62 -6 -8 -19 -11 -27 -9 -8 3 -4 -4
10 -16 14 -11 27 -16 28 -10 6 17 22 -2 22 -26 0 -13 7 -30 15 -38 11 -12 12
-17 2 -20 -9 -4 -9 -6 1 -6 19 -1 44 -29 37 -40 -3 -5 -1 -12 5 -16 17 -10 11
-25 -7 -18 -11 4 -14 3 -9 -5 4 -7 14 -12 22 -12 16 0 19 -17 4 -22 -5 -1 -7
-13 -3 -26 3 -13 11 -21 17 -19 7 3 12 -4 12 -14 0 -11 -6 -19 -13 -19 -11 0
-11 -4 -1 -20 11 -17 10 -22 -2 -30 -14 -9 -7 -14 13 -11 4 1 7 -7 5 -16 -2
-11 2 -17 11 -15 9 2 12 -4 8 -18 -3 -11 -1 -23 4 -26 5 -3 9 1 10 8 0 7 4 4
9 -7 8 -19 9 -19 9 3 1 13 -4 33 -10 44 -6 12 -13 35 -14 52 -2 17 -7 40 -11
51 -7 20 -7 20 14 1 12 -11 22 -14 22 -9 0 6 -7 16 -15 23 -22 18 0 31 32 19
14 -5 23 -5 23 1 0 6 -7 10 -15 10 -9 0 -18 7 -21 15 -4 10 -14 14 -28 10 -16
-5 -17 -4 -7 4 13 8 13 12 0 27 -8 10 -9 15 -2 11 18 -11 25 9 8 23 -16 13
-45 67 -45 83 0 16 -115 124 -151 141 -19 9 -26 11 -15 4z"/>
</g>
</svg>
